<svg width="16" height="16" viewBox="0 0 16 16" fill="none" xmlns="http://www.w3.org/2000/svg">
<path fill-rule="evenodd" clip-rule="evenodd" d="M6.88886 4.16294C7.21776 4.3827 7.60444 4.5 8 4.5C8.53043 4.5 9.03914 4.28929 9.41421 3.91421C9.78929 3.53914 10 3.03043 10 2.5C10 2.10444 9.8827 1.71776 9.66294 1.38886C9.44318 1.05996 9.13082 0.803617 8.76537 0.652242C8.39992 0.500867 7.99778 0.46126 7.60982 0.53843C7.22186 0.615601 6.86549 0.806082 6.58579 1.08579C6.30608 1.36549 6.1156 1.72186 6.03843 2.10982C5.96126 2.49778 6.00087 2.89992 6.15224 3.26537C6.30362 3.63082 6.55996 3.94318 6.88886 4.16294ZM7.44443 1.66853C7.60888 1.55865 7.80222 1.5 8 1.5C8.26522 1.5 8.51957 1.60536 8.70711 1.79289C8.89464 1.98043 9 2.23478 9 2.5C9 2.69778 8.94135 2.89112 8.83147 3.05557C8.72159 3.22002 8.56541 3.34819 8.38268 3.42388C8.19996 3.49957 7.99889 3.51937 7.80491 3.48079C7.61093 3.4422 7.43275 3.34696 7.29289 3.20711C7.15304 3.06726 7.0578 2.88907 7.01922 2.69509C6.98063 2.50111 7.00043 2.30004 7.07612 2.11732C7.15181 1.93459 7.27998 1.77841 7.44443 1.66853ZM7 15H9C9.26522 15 9.51957 14.8946 9.70711 14.7071C9.89464 14.5196 10 14.2652 10 14V10.5C10.2652 10.5 10.5196 10.3946 10.7071 10.2071C10.8946 10.0196 11 9.76522 11 9.5V6.5C11 6.10218 10.842 5.72064 10.5607 5.43934C10.2794 5.15804 9.89782 5 9.5 5H6.5C6.10218 5 5.72064 5.15804 5.43934 5.43934C5.15804 5.72064 5 6.10218 5 6.5V9.5C5 9.76522 5.10536 10.0196 5.29289 10.2071C5.48043 10.3946 5.73478 10.5 6 10.5V14C6 14.2652 6.10536 14.5196 6.29289 14.7071C6.48043 14.8946 6.73478 15 7 15ZM6.30355 6.02905C6.36622 6.00548 6.4332 5.99558 6.5 6H9.5C9.5668 5.99558 9.63378 6.00548 9.69645 6.02905C9.75911 6.05261 9.81602 6.08929 9.86337 6.13663C9.91071 6.18398 9.94739 6.24088 9.97095 6.30355C9.99452 6.36622 10.0044 6.4332 10 6.5V9.5H9V14H7V9.5H6V6.5C5.99558 6.4332 6.00548 6.36622 6.02905 6.30355C6.05261 6.24088 6.08929 6.18398 6.13663 6.13663C6.18398 6.08929 6.24088 6.05261 6.30355 6.02905Z" fill="#052B52"/>
</svg>
